/* XPM */
static char * icon16_xpm[] = {
"16 16 169 2",
"  	c None",
". 	c #1B1510",
"+ 	c #18180C",
"@ 	c #18130D",
"# 	c #4A3E1E",
"$ 	c #473B1E",
"% 	c #554720",
"& 	c #18150B",
"* 	c #312A16",
"= 	c #14100C",
"- 	c #806323",
"; 	c #7A601E",
"> 	c #261D15",
", 	c #101310",
"' 	c #141810",
") 	c #372C16",
"! 	c #4C3C1C",
"~ 	c #40341A",
"{ 	c #262015",
"] 	c #0C0C14",
"^ 	c #0D0D0D",
"/ 	c #080808",
"( 	c #121006",
"_ 	c #2F260C",
": 	c #846825",
"< 	c #7A5F25",
"[ 	c #8E7125",
"} 	c #886921",
"| 	c #BE9631",
"1 	c #C09A2F",
"2 	c #C19C31",
"3 	c #92732B",
"4 	c #2E2816",
"5 	c #10100D",
"6 	c #312A10",
"7 	c #7C6020",
"8 	c #463812",
"9 	c #776F63",
"0 	c #CEC1B3",
"a 	c #F3E9D6",
"b 	c #EFE3CC",
"c 	c #E0C892",
"d 	c #D2AC44",
"e 	c #B3912F",
"f 	c #4A3F1B",
"g 	c #141010",
"h 	c #AB8A2F",
"i 	c #4E3C1D",
"j 	c #CAC0AF",
"k 	c #EAEBEC",
"l 	c #DAD5DA",
"m 	c #F1EFF1",
"n 	c #E0D8E0",
"o 	c #CECACE",
"p 	c #F7F3E8",
"q 	c #7E683C",
"r 	c #634F1A",
"s 	c #262616",
"t 	c #584A1E",
"u 	c #79601F",
"v 	c #D4CAAD",
"w 	c #C6C4C6",
"x 	c #D2C9BA",
"y 	c #EBE3CE",
"z 	c #F1E9E5",
"A 	c #FFFFFF",
"B 	c #BFB8BF",
"C 	c #E8E1D6",
"D 	c #5E4C1A",
"E 	c #6D5823",
"F 	c #081010",
"G 	c #A5862F",
"H 	c #715C33",
"I 	c #DEDBDE",
"J 	c #E0DDD8",
"K 	c #EFD6C2",
"L 	c #E09F8E",
"M 	c #E6DDCC",
"N 	c #FFFBFF",
"O 	c #F9F9F9",
"P 	c #FBFBFB",
"Q 	c #D2B780",
"R 	c #775E1E",
"S 	c #242018",
"T 	c #252018",
"U 	c #181813",
"V 	c #A4822B",
"W 	c #9E8E6D",
"X 	c #D6D3D6",
"Y 	c #EDEBEA",
"Z 	c #E9E3CC",
"` 	c #F3E1C8",
" .	c #9C9992",
"..	c #FFFDFF",
"+.	c #A2A3A2",
"@.	c #E6D5B7",
"#.	c #88691F",
"$.	c #624D21",
"%.	c #29220E",
"&.	c #1E1A0A",
"*.	c #8C6E25",
"=.	c #A4987B",
"-.	c #ECE9EC",
";.	c #FBF7F9",
">.	c #F7F3F5",
",.	c #8E8B8E",
"'.	c #FBF9FB",
").	c #FDFBFD",
"!.	c #F1E3C6",
"~.	c #866C1C",
"{.	c #0C0C0C",
"].	c #080D10",
"^.	c #9C7E2B",
"/.	c #867550",
"(.	c #D2CFD2",
"_.	c #F3F1F3",
":.	c #DAD6DA",
"<.	c #F9F5F9",
"[.	c #A9A4A9",
"}.	c #E5CC9E",
"|.	c #84651F",
"1.	c #3A2C18",
"2.	c #7B5F24",
"3.	c #443412",
"4.	c #F7EFE0",
"5.	c #BFBDBF",
"6.	c #F5F1F5",
"7.	c #DEDCDE",
"8.	c #F5F3F5",
"9.	c #F7F7F7",
"0.	c #FBF9F9",
"a.	c #D8B256",
"b.	c #755D23",
"c.	c #0C1010",
"d.	c #312613",
"e.	c #34280C",
"f.	c #8A764C",
"g.	c #E0DFDC",
"h.	c #B5B1B5",
"i.	c #F3EFF3",
"j.	c #D2CED2",
"k.	c #A5A6A7",
"l.	c #E6CF98",
"m.	c #967425",
"n.	c #46381A",
"o.	c #443818",
"p.	c #5C4814",
"q.	c #D8B65A",
"r.	c #EDE1CC",
"s.	c #DEDDDE",
"t.	c #F7F5F7",
"u.	c #ABA9AF",
"v.	c #F5EFE8",
"w.	c #AF9D71",
"x.	c #8A6A22",
"y.	c #634D1C",
"z.	c #3E3418",
"A.	c #584716",
"B.	c #987927",
"C.	c #C6A14C",
"D.	c #D4B45E",
"E.	c #C3A352",
"F.	c #806222",
"G.	c #31240A",
"H.	c #504118",
"I.	c #261D13",
"J.	c #423418",
"K.	c #4A3C16",
"L.	c #372E18",
"  . + @                         ",
"#   $ % &                       ",
"* = - ; > , ' ) ! ~ { ]         ",
"^ / ( _ : < [ } | 1 2 3 4       ",
"  / 5 6 7 8 9 0 a b c d e f     ",
"    g h i j k l m n o p q r s   ",
"    t u v w x y z A A B C D E   ",
"  F G H I J K L M N A O P Q R S ",
"T U V W X Y Z `  .A A ..+.@.#.$.",
"%.&.*.=.-.-.;.>.,.'.A A ).!.~.$.",
"{.].^./.(._.A A :.<.A ..[.}.|.1.",
"    2.3.4.5.6.A 7.8.A 9.0.a.b.c.",
"    d.e.f.g.P h.i.j.'.k.l.m.n.  ",
"      o.p.q.r.s.t.u.v.w.x.y.    ",
"        z.A.B.C.D.E.F.G.H.      ",
"          I.J.3.8 K.! L.        "};
