/* XPM */
static char * icon32_xpm[] = {
"32 32 226 2",
"  	c None",
". 	c #101010",
"+ 	c #181810",
"@ 	c #181808",
"# 	c #181008",
"$ 	c #211810",
"% 	c #101008",
"& 	c #524921",
"* 	c #393018",
"= 	c #292018",
"- 	c #635121",
"; 	c #212018",
"> 	c #8C7129",
", 	c #AD8E31",
"' 	c #292818",
") 	c #423818",
"! 	c #8C6929",
"~ 	c #846921",
"{ 	c #A58629",
"] 	c #846929",
"^ 	c #181010",
"/ 	c #080810",
"( 	c #101018",
"_ 	c #212010",
": 	c #000000",
"< 	c #634918",
"[ 	c #6B5118",
"} 	c #524110",
"| 	c #312818",
"1 	c #081010",
"2 	c #524118",
"3 	c #735921",
"4 	c #947129",
"5 	c #6B5921",
"6 	c #4A3818",
"7 	c #080808",
"8 	c #393010",
"9 	c #080800",
"0 	c #947929",
"a 	c #312810",
"b 	c #CEA639",
"c 	c #BD9631",
"d 	c #B58E31",
"e 	c #B59631",
"f 	c #C69E39",
"g 	c #D6AE39",
"h 	c #080000",
"i 	c #9C7929",
"j 	c #AD8631",
"k 	c #E7B642",
"l 	c #292008",
"m 	c #9C7121",
"n 	c #CE9E31",
"o 	c #C69E31",
"p 	c #C69E29",
"q 	c #BD9629",
"r 	c #B59629",
"s 	c #D6A639",
"t 	c #5A4921",
"u 	c #423010",
"v 	c #312008",
"w 	c #8C795A",
"x 	c #CEB68C",
"y 	c #E7D7AD",
"z 	c #E7CFAD",
"A 	c #DECFA5",
"B 	c #E7C78C",
"C 	c #DEB65A",
"D 	c #F7C742",
"E 	c #736121",
"F 	c #635118",
"G 	c #B5A684",
"H 	c #F7EFEF",
"I 	c #FFF7FF",
"J 	c #DEDFE7",
"K 	c #FFFFFF",
"L 	c #F7F7FF",
"M 	c #EFDFCE",
"N 	c #DEBE73",
"O 	c #D6AE31",
"P 	c #EFBE42",
"Q 	c #7B6939",
"R 	c #EFE7D6",
"S 	c #F7EFF7",
"T 	c #8C8E8C",
"U 	c #D6CFD6",
"V 	c #C6BEC6",
"W 	c #847984",
"X 	c #EFEFEF",
"Y 	c #846121",
"Z 	c #BD9E31",
"` 	c #100800",
" .	c #8C794A",
"..	c #F7E7DE",
"+.	c #C6C7CE",
"@.	c #B5B6B5",
"#.	c #E7DFE7",
"$.	c #BDB6BD",
"%.	c #C6C7C6",
"&.	c #8C6921",
"*.	c #312808",
"=.	c #6B5929",
"-.	c #FFF7E7",
";.	c #DEDFDE",
">.	c #737173",
",.	c #9C9694",
"'.	c #D6D7C6",
").	c #D6CFBD",
"!.	c #E7DFCE",
"~.	c #EFE7E7",
"{.	c #ADA6AD",
"].	c #D6D7DE",
"^.	c #EFD79C",
"/.	c #735910",
"(.	c #181000",
"_.	c #392808",
":.	c #E7D7A5",
"<.	c #E7D7C6",
"[.	c #EFDFC6",
"}.	c #F7F7DE",
"|.	c #F7E7CE",
"1.	c #9C969C",
"2.	c #CEAE5A",
"3.	c #211800",
"4.	c #735929",
"5.	c #E7BE42",
"6.	c #423008",
"7.	c #8C7139",
"8.	c #FFF7F7",
"9.	c #E7DFD6",
"0.	c #F7EFD6",
"a.	c #E7BEAD",
"b.	c #DE9E8C",
"c.	c #DED7CE",
"d.	c #F7F7F7",
"e.	c #EFDFB5",
"f.	c #A58631",
"g.	c #181818",
"h.	c #291800",
"i.	c #9C9E9C",
"j.	c #B5B6BD",
"k.	c #BD2821",
"l.	c #EFCFBD",
"m.	c #EFE7CE",
"n.	c #D6CFC6",
"o.	c #DEAE42",
"p.	c #735918",
"q.	c #EFDFBD",
"r.	c #8C868C",
"s.	c #E7DFC6",
"t.	c #EFD7BD",
"u.	c #F7D7BD",
"v.	c #BDB6A5",
"w.	c #ADAEAD",
"x.	c #7B797B",
"y.	c #D6CFDE",
"z.	c #9C7921",
"A.	c #7B6121",
"B.	c #211818",
"C.	c #F7E7D6",
"D.	c #DEDFCE",
"E.	c #9C9E8C",
"F.	c #6B616B",
"G.	c #A5A6A5",
"H.	c #BDBEBD",
"I.	c #E7CF8C",
"J.	c #6B5121",
"K.	c #524918",
"L.	c #F7EFE7",
"M.	c #E7DFDE",
"N.	c #EFE7EF",
"O.	c #E7CF94",
"P.	c #A58621",
"Q.	c #101000",
"R.	c #B5AEB5",
"S.	c #DEC784",
"T.	c #AD8621",
"U.	c #8C7121",
"V.	c #E7D7B5",
"W.	c #848684",
"X.	c #CEC7CE",
"Y.	c #948E94",
"Z.	c #E7E7EF",
"`.	c #E7BE6B",
" +	c #947121",
".+	c #6B5918",
"++	c #211000",
"@+	c #CEBE84",
"#+	c #A59EA5",
"$+	c #DED7D6",
"%+	c #E7B64A",
"&+	c #DEAE39",
"*+	c #8C7131",
"=+	c #FFF7EF",
"-+	c #D6D7D6",
";+	c #E7CFA5",
">+	c #DEAE31",
",+	c #DEC794",
"'+	c #E7E7E7",
")+	c #F7F7EF",
"!+	c #E7BE5A",
"~+	c #B58E29",
"{+	c #CECFCE",
"]+	c #DEC78C",
"^+	c #E7B639",
"/+	c #B59642",
"(+	c #7B717B",
"_+	c #DEC79C",
":+	c #423018",
"<+	c #E7BE52",
"[+	c #636163",
"}+	c #AD8E29",
"|+	c #E7D7CE",
"1+	c #A5A6B5",
"2+	c #DECFAD",
"3+	c #9C8642",
"4+	c #4A3810",
"5+	c #5A4118",
"6+	c #E7BE63",
"7+	c #E7C784",
"8+	c #DECF94",
"9+	c #EFBE52",
"0+	c #7B5918",
"a+	c #5A4918",
"b+	c #C69629",
"c+	c #423821",
"      . + @ # .                                                 ",
"    $ $       $ %                                               ",
"  & *     = =   $ %                                             ",
"= -     ; > , '   @                                             ",
"* )   = ! ~ { ]   ^ .       . / / . / / (                       ",
"_ =   : < > [ } = | + 1 1 _ 2 3 ] 4 ] 5 6 + / (                 ",
". .   7 : 8 9 0 , a 7 6 { b c c d , e f g c 3 | 1               ",
"  7 7   7 9 h @ i 4 j k i l 9 m n o p q r c b s 3 .             ",
"  t 7 7   ; ) : u j e v : | w x y z A B C g o b D { +           ",
"      7 7 7 % E i F : a G H I J K K K L J M N O ~ , , +         ",
"          / 8 P 4 h Q R K K S T U K I V W X K A Y : [ 0 1       ",
"          $ f Z `  ...+.@.L I #.X K I $.%.I K K y &.: > - 1     ",
"        / E P *.=.-.;.>.,.'.).!.~.K K K K K S {.].^./.(., _     ",
"        + b > _.:.K I %.<.[.}.|.<.~.K K K K $.1.;.I 2.3.3 4.1   ",
"      1 2 5.6.7.8.I K 9.0.a.b.|.|.c.I K K K d.X K K e.&.*.f.g.  ",
"      1 > b h.x J i.j.!.0.a.k.l.m.n.I K K K K K K X ~.o.p.4 |   ",
"      . d i 6.q.U r.].9.s.0.t.u.v.w.K K K K K I w.x.y.N z.A.t   ",
"B.' ; + b p.2 C.K d.K d.D.s.m.0.E.F.K K K K K K G.H.I I.z.[ J.  ",
"* F t % c [ K.L.K K I K I ~.M.S T . N.K K K K K K K K O.P.F J.  ",
"7 : Q.: 0 3 2 C.I R.R.K K K K K N.{.K K K K K K K S I S.T.F t   ",
". 7 1 1 f.U.6.V.U W.X.K K K K K I @.S K K K K I @.Y.Z.`. +.+6   ",
"      / ] c ++@+K N.K K K K K K K R.N.K K K K K #+R.$+%+Y &.=   ",
"      . 6 &+l *+=+K I -+I K K K K @.N.K K K K K S K ;+>+3 > .   ",
"        ^ j # 6.,+K @.>.U K K K K V '+K K K d.'+K )+!+~+3 - 1   ",
"        . < u : 3 M +.{+K K '+'+K -+;.K K d.i.T L ]+^+[ 4 $     ",
"          $ ~ 9 ` /+R K K X (+r.I S #+V K S G.+._+^+&.A.t 1     ",
"          ( :+.+` q <+V.K X i.N.K #.[+@.K K 8.S.^+i < ~ .       ",
"            1 t A.l }+^+N |+X K K d.1+N.S 2+3+6.4+5+! +         ",
"              . 2 3 l p.O k 6+7+O.8+]+N 9+0+: : a+A.+           ",
"                1 ' 5 a+u F  +~+b+p ~+z.[ l _.&.a+.             ",
"                  ^ ^ 6 J.a+u _.l *.*.8 5+3 J.' /               ",
"                      . . | ) 2 a+- - t c+; .                   "};
